<?xml version="1.0" encoding="UTF-8" standalone="no"?>
<!-- Created with Inkscape (http://www.inkscape.org/) -->

<svg
   xmlns:dc="http://purl.org/dc/elements/1.1/"
   xmlns:cc="http://creativecommons.org/ns#"
   xmlns:rdf="http://www.w3.org/1999/02/22-rdf-syntax-ns#"
   xmlns:svg="http://www.w3.org/2000/svg"
   xmlns="http://www.w3.org/2000/svg"
   xmlns:sodipodi="http://sodipodi.sourceforge.net/DTD/sodipodi-0.dtd"
   xmlns:inkscape="http://www.inkscape.org/namespaces/inkscape"
   width="104.04986mm"
   height="29.452984mm"
   viewBox="0 0 104.04986 29.452984"
   version="1.1"
   id="svg8"
   inkscape:version="0.92.2 5c3e80d, 2017-08-06"
   sodipodi:docname="bookSwap2.svg">
  <defs
     id="defs2">
    <marker
       inkscape:isstock="true"
       style="overflow:visible"
       id="marker6933"
       refX="0"
       refY="0"
       orient="auto"
       inkscape:stockid="TriangleOutL">
      <path
         transform="scale(0.8)"
         style="fill:#c14953;fill-opacity:1;fill-rule:evenodd;stroke:#c14953;stroke-width:1.00000003pt;stroke-opacity:1"
         d="M 5.77,0 -2.88,5 V -5 Z"
         id="path6931"
         inkscape:connector-curvature="0" />
    </marker>
    <marker
       inkscape:stockid="Arrow1Lend"
       orient="auto"
       refY="0"
       refX="0"
       id="marker5477"
       style="overflow:visible"
       inkscape:isstock="true">
      <path
         id="path5475"
         d="M 0,0 5,-5 -12.5,0 5,5 Z"
         style="fill:#000000;fill-opacity:1;fill-rule:evenodd;stroke:#000000;stroke-width:1.00000003pt;stroke-opacity:1"
         transform="matrix(-0.8,0,0,-0.8,-10,0)"
         inkscape:connector-curvature="0" />
    </marker>
    <marker
       inkscape:stockid="Arrow1Lend"
       orient="auto"
       refY="0"
       refX="0"
       id="Arrow1Lend"
       style="overflow:visible"
       inkscape:isstock="true">
      <path
         id="path5096"
         d="M 0,0 5,-5 -12.5,0 5,5 Z"
         style="fill:#000000;fill-opacity:1;fill-rule:evenodd;stroke:#000000;stroke-width:1.00000003pt;stroke-opacity:1"
         transform="matrix(-0.8,0,0,-0.8,-10,0)"
         inkscape:connector-curvature="0" />
    </marker>
    <marker
       inkscape:stockid="Arrow1Mstart"
       orient="auto"
       refY="0"
       refX="0"
       id="Arrow1Mstart"
       style="overflow:visible"
       inkscape:isstock="true">
      <path
         id="path5099"
         d="M 0,0 5,-5 -12.5,0 5,5 Z"
         style="fill:#000000;fill-opacity:1;fill-rule:evenodd;stroke:#000000;stroke-width:1.00000003pt;stroke-opacity:1"
         transform="matrix(0.4,0,0,0.4,4,0)"
         inkscape:connector-curvature="0" />
    </marker>
    <marker
       inkscape:stockid="Arrow1Lstart"
       orient="auto"
       refY="0"
       refX="0"
       id="Arrow1Lstart"
       style="overflow:visible"
       inkscape:isstock="true">
      <path
         id="path5093"
         d="M 0,0 5,-5 -12.5,0 5,5 Z"
         style="fill:#000000;fill-opacity:1;fill-rule:evenodd;stroke:#000000;stroke-width:1.00000003pt;stroke-opacity:1"
         transform="matrix(0.8,0,0,0.8,10,0)"
         inkscape:connector-curvature="0" />
    </marker>
    <marker
       inkscape:isstock="true"
       style="overflow:visible"
       id="marker5555"
       refX="0"
       refY="0"
       orient="auto"
       inkscape:stockid="Arrow2Lstart">
      <path
         transform="matrix(1.1,0,0,1.1,1.1,0)"
         d="M 8.7185878,4.0337352 -2.2072895,0.01601326 8.7185884,-4.0017078 c -1.7454984,2.3720609 -1.7354408,5.6174519 -6e-7,8.035443 z"
         style="fill:#000000;fill-opacity:1;fill-rule:evenodd;stroke:#000000;stroke-width:0.625;stroke-linejoin:round;stroke-opacity:1"
         id="path5553"
         inkscape:connector-curvature="0" />
    </marker>
  </defs>
  <sodipodi:namedview
     id="base"
     pagecolor="#ffffff"
     bordercolor="#666666"
     borderopacity="1.0"
     inkscape:pageopacity="0.0"
     inkscape:pageshadow="2"
     inkscape:zoom="2.8284271"
     inkscape:cx="183.96265"
     inkscape:cy="115.32752"
     inkscape:document-units="mm"
     inkscape:current-layer="layer1"
     showgrid="false"
     showguides="true"
     inkscape:guide-bbox="true"
     inkscape:window-width="1680"
     inkscape:window-height="952"
     inkscape:window-x="14"
     inkscape:window-y="0"
     inkscape:window-maximized="0"
     objecttolerance="1"
     fit-margin-top="0"
     fit-margin-left="0"
     fit-margin-right="0"
     fit-margin-bottom="0" />
  <metadata
     id="metadata5">
    <rdf:RDF>
      <cc:Work
         rdf:about="">
        <dc:format>image/svg+xml</dc:format>
        <dc:type
           rdf:resource="http://purl.org/dc/dcmitype/StillImage" />
        <dc:title></dc:title>
      </cc:Work>
    </rdf:RDF>
  </metadata>
  <g
     inkscape:label="Layer 1"
     inkscape:groupmode="layer"
     id="layer1"
     transform="translate(-13.572121,-94.133787)">
    <g
       id="g3187"
       transform="translate(-38.720778,36.937367)">
      <path
         inkscape:connector-curvature="0"
         d="m 55.451248,56.629763 c 0.02248,0.03663 0.0468,0.07165 0.0677,0.109553 0.02466,0.01244 0.04782,0.02797 0.07338,0.03876 0.115751,0.04883 0.01391,-0.03732 -0.141076,-0.148312 z m 34.462495,0.509013 c -0.02002,0.0038 -0.04002,0.0076 -0.05994,0.01188 -0.0047,0.0011 -0.01874,0.0052 -0.01395,0.0047 0.02425,-0.0024 0.04927,-0.01021 0.0739,-0.01551 -4e-5,-2.64e-4 4e-5,-7.94e-4 0,-0.0011 z m -33.39176,1.615922 v 20.36103 c 8.063129,0.104794 11.920755,1.678628 13.759884,3.034957 v -3.188436 h 1.648478 v 3.188436 c 1.839127,-1.357766 5.696759,-2.930163 13.759883,-3.034957 v -20.35948 c -11.206184,0.144465 -13.448497,3.19591 -13.759883,3.747574 v 3.242697 h -1.648478 v -3.249414 c -0.285938,-0.503759 -2.46687,-3.597193 -13.759884,-3.742407 z m 16.717842,0.852143 c -0.0036,0.02614 -0.0069,0.05233 -0.0098,0.07855 0.0015,-7.94e-4 0.0027,-0.0019 0.0041,-0.0026 0.0039,-0.02043 0.0046,-0.0076 0.0088,-0.04341 -4.5e-4,0.015 -0.0016,0.02559 -0.0021,0.03979 0.04505,-0.024 0.08628,-0.04786 0.132808,-0.07183 -0.04307,-2.64e-4 -0.08613,-1.29e-4 -0.129191,-5.29e-4 -0.0016,-10e-6 -0.0031,1.4e-5 -0.0047,0 z M 52.018899,67.51592 v 0.57981 c 0.08772,0.09174 0.177386,0.180134 0.272335,0.260448 0.03423,-0.05005 0.06769,-0.100235 0.101802,-0.150378 v -0.529167 c -0.108873,-0.06257 -0.236275,-0.0971 -0.374137,-0.160713 z m 0,0.736907 v 0.321942 c 0.01445,0.0026 0.02846,0.0052 0.04289,0.0078 -0.01144,-0.09458 -0.02379,-0.189185 -0.03566,-0.283704 -0.0019,-0.01222 -0.005,-0.03161 -0.0072,-0.04599 z m 37.808028,14.525727 c -5.56e-4,8.46e-4 -0.001,0.0017 -0.0016,0.0026 0.002,0.0036 0.01498,0.03622 0.01189,0.02687 -0.0033,-0.0099 -0.007,-0.01961 -0.01033,-0.02945 z m -20.698478,3.322794 c -0.01213,0.01051 -0.02031,0.0198 -0.03307,0.03049 0.0021,0.003 0.0036,0.0063 0.0057,0.0093 0.0222,-0.003 0.04447,-0.0052 0.06666,-0.0083 -0.01439,-0.01091 -0.02439,-0.02047 -0.03927,-0.03152 z m -17.10955,2.287716 v 0.118339 h 0.236678 c -0.004,-0.005 -0.01965,-0.02431 -0.02377,-0.02946 -0.07088,-0.02212 -0.141753,-0.05272 -0.212907,-0.08888 z m 17.295585,0.07131 c -0.07258,0.0061 -0.132255,0.01414 -0.209807,0.01964 -0.04665,0.0033 -0.09921,0.01599 -0.150895,0.02739 h 3.723287 c -0.01467,-0.01409 -0.03751,-0.03324 -0.05168,-0.04703 h -2.894397 z m -0.998389,0.03049 c -0.0021,0.0051 -0.004,0.01158 -0.0062,0.01654 h 0.02429 c -0.0058,-0.006 -0.01275,-0.0097 -0.01809,-0.01654 z"
         style="fill:#ffffff;fill-opacity:1;stroke:none;stroke-width:0.27355477"
         id="rect3098" />
      <g
         id="g3108"
         transform="matrix(0.74852635,0,0,0.74852635,134.58206,67.425506)">
        <path
           id="path3104"
           style="fill:#4c4c47;fill-opacity:1;stroke-width:1"
           d="m -106.12119,-13.432584 v 2.236884 c -0.658,-0.01801 -1.31608,-0.02296 -2.01608,-0.02296 h -1.66386 v 32.350064 h 1.66386 c 17.595001,0 21.186118,4.034971 21.698119,4.783971 h 3.301834 c 0.557,-0.784001 4.218202,-4.783971 21.673203,-4.783971 h 1.662886 V -11.21866 h -1.663862 c -0.701002,0 -1.359032,0.0069 -2.018032,0.02394 v -2.237862 h -0.73423 c -14.262001,0 -19.042805,3.410962 -20.584805,5.2519642 -1.542,-1.8410022 -6.323294,-5.2519642 -20.585293,-5.2519642 z m 1.83582,1.849008 c 15.086996,0.194 18.001089,4.3268921 18.38309,4.9998912 v 4.340894 h 2.2022 v -4.3320999 c 0.415999,-0.7370015 3.411605,-4.8137323 18.382604,-5.0067323 v 27.19971 c -10.771998,0.14 -15.925604,2.240138 -18.382604,4.054138 v -4.258979 h -2.202303 v 4.259159 c -2.456999,-1.811999 -7.611093,-3.914138 -18.383097,-4.054138 z"
           inkscape:connector-curvature="0"
           sodipodi:nodetypes="ccsccsccsccsccscccccccccccccccc" />
      </g>
    </g>
    <text
       xml:space="preserve"
       style="font-style:normal;font-weight:normal;font-size:10.58333302px;line-height:1.25;font-family:sans-serif;letter-spacing:0px;word-spacing:0px;fill:#000000;fill-opacity:1;stroke:none;stroke-width:0.26458332"
       x="12.662203"
       y="89.113091"
       id="text28"><tspan
         sodipodi:role="line"
         id="tspan26"
         x="12.662203"
         y="98.47686"
         style="stroke-width:0.26458332" /></text>
    <g
       aria-label="S"
       style="font-style:normal;font-weight:normal;font-size:25.39999962px;line-height:1.25;font-family:sans-serif;letter-spacing:0px;word-spacing:0px;fill:#000000;fill-opacity:1;stroke:none;stroke-width:0.26458332"
       id="text5051"
       transform="translate(-6.5287832,-1.2835183)" />
    <g
       transform="matrix(0.17358808,0.59226467,0.51034884,-0.23164909,0.08197587,112.06049)"
       id="g6038"
       style="fill:#333333;fill-opacity:1" />
    <path
       style="fill:#333333;fill-opacity:1;stroke:none;stroke-width:0.07086615;stroke-miterlimit:4;stroke-dasharray:none;stroke-opacity:1"
       d=""
       id="path6065"
       inkscape:connector-curvature="0"
       transform="scale(0.26458333)" />
    <path
       style="fill:#333333;fill-opacity:1;stroke:none;stroke-width:0.07086615;stroke-miterlimit:4;stroke-dasharray:none;stroke-opacity:1"
       d=""
       id="path6073"
       inkscape:connector-curvature="0"
       transform="scale(0.26458333)" />
    <path
       style="fill:#333333;fill-opacity:1;stroke:none;stroke-width:0.07086615;stroke-miterlimit:4;stroke-dasharray:none;stroke-opacity:1"
       d=""
       id="path6087"
       inkscape:connector-curvature="0"
       transform="scale(0.26458333)" />
    <path
       style="fill:#333333;fill-opacity:1;stroke:none;stroke-width:0.07086615;stroke-miterlimit:4;stroke-dasharray:none;stroke-opacity:1"
       d=""
       id="path6089"
       inkscape:connector-curvature="0"
       transform="scale(0.26458333)" />
    <path
       style="fill:#333333;fill-opacity:1;stroke:none;stroke-width:0.07086615;stroke-miterlimit:4;stroke-dasharray:none;stroke-opacity:1"
       d=""
       id="path6097"
       inkscape:connector-curvature="0"
       transform="scale(0.26458333)" />
    <g
       id="g2145"
       transform="matrix(1.0578393,0,0,1.0578393,122.85077,105.43289)" />
    <g
       id="g2147"
       transform="matrix(1.0578393,0,0,1.0578393,122.85077,105.43289)" />
    <g
       id="g2149"
       transform="matrix(1.0578393,0,0,1.0578393,122.85077,105.43289)" />
    <g
       id="g2151"
       transform="matrix(1.0578393,0,0,1.0578393,122.85077,105.43289)" />
    <g
       id="g2153"
       transform="matrix(1.0578393,0,0,1.0578393,122.85077,105.43289)" />
    <g
       id="g2155"
       transform="matrix(1.0578393,0,0,1.0578393,122.85077,105.43289)" />
    <g
       id="g2157"
       transform="matrix(1.0578393,0,0,1.0578393,122.85077,105.43289)" />
    <g
       id="g2159"
       transform="matrix(1.0578393,0,0,1.0578393,122.85077,105.43289)" />
    <g
       id="g2161"
       transform="matrix(1.0578393,0,0,1.0578393,122.85077,105.43289)" />
    <g
       id="g2163"
       transform="matrix(1.0578393,0,0,1.0578393,122.85077,105.43289)" />
    <g
       id="g2165"
       transform="matrix(1.0578393,0,0,1.0578393,122.85077,105.43289)" />
    <g
       id="g2167"
       transform="matrix(1.0578393,0,0,1.0578393,122.85077,105.43289)" />
    <g
       id="g2169"
       transform="matrix(1.0578393,0,0,1.0578393,122.85077,105.43289)" />
    <g
       id="g2171"
       transform="matrix(1.0578393,0,0,1.0578393,122.85077,105.43289)" />
    <g
       id="g2173"
       transform="matrix(1.0578393,0,0,1.0578393,122.85077,105.43289)" />
    <g
       aria-label=" book "
       style="font-style:normal;font-weight:normal;font-size:10.58333302px;line-height:1.25;font-family:sans-serif;letter-spacing:0px;word-spacing:0px;fill:#4c4c47;fill-opacity:1;stroke:none;stroke-width:0.26458332"
       id="text2265">
      <path
         d="m 24.396441,108.37378 q 0,-1.04903 -0.434083,-1.64331 -0.428914,-0.59944 -1.18339,-0.59944 -0.754476,0 -1.188558,0.59944 -0.428914,0.59428 -0.428914,1.64331 0,1.04904 0.428914,1.64848 0.434082,0.59428 1.188558,0.59428 0.754476,0 1.18339,-0.59428 0.434083,-0.59944 0.434083,-1.64848 z m -3.234945,-2.02054 q 0.299723,-0.51677 0.754476,-0.76482 0.45992,-0.25321 1.09554,-0.25321 1.054199,0 1.71049,0.83716 0.661458,0.83716 0.661458,2.20141 0,1.36426 -0.661458,2.20142 -0.656291,0.83716 -1.71049,0.83716 -0.63562,0 -1.09554,-0.24805 -0.454753,-0.25321 -0.754476,-0.76998 v 0.86817 h -0.956014 v -8.04086 h 0.956014 z"
         style="fill:#4c4c47;fill-opacity:1"
         id="path3089" />
      <path
         d="m 29.202349,106.14136 q -0.764812,0 -1.209229,0.59945 -0.444417,0.59428 -0.444417,1.63297 0,1.0387 0.439249,1.63815 0.444418,0.59428 1.214397,0.59428 0.759643,0 1.20406,-0.59945 0.444418,-0.59945 0.444418,-1.63298 0,-1.02836 -0.444418,-1.6278 -0.444417,-0.60462 -1.20406,-0.60462 z m 0,-0.80615 q 1.240234,0 1.948201,0.80615 0.707967,0.80615 0.707967,2.23242 0,1.42111 -0.707967,2.23243 -0.707967,0.80615 -1.948201,0.80615 -1.245402,0 -1.953369,-0.80615 -0.7028,-0.81132 -0.7028,-2.23243 0,-1.42627 0.7028,-2.23242 0.707967,-0.80615 1.953369,-0.80615 z"
         style="fill:#4c4c47;fill-opacity:1"
         id="path3091" />
      <path
         d="m 35.672238,106.14136 q -0.764811,0 -1.209228,0.59945 -0.444418,0.59428 -0.444418,1.63297 0,1.0387 0.43925,1.63815 0.444417,0.59428 1.214396,0.59428 0.759644,0 1.204061,-0.59945 0.444417,-0.59945 0.444417,-1.63298 0,-1.02836 -0.444417,-1.6278 -0.444417,-0.60462 -1.204061,-0.60462 z m 0,-0.80615 q 1.240235,0 1.948202,0.80615 0.707967,0.80615 0.707967,2.23242 0,1.42111 -0.707967,2.23243 -0.707967,0.80615 -1.948202,0.80615 -1.245402,0 -1.953369,-0.80615 -0.702799,-0.81132 -0.702799,-2.23243 0,-1.42627 0.702799,-2.23242 0.707967,-0.80615 1.953369,-0.80615 z"
         style="fill:#4c4c47;fill-opacity:1"
         id="path3093" />
      <path
         d="m 39.863196,103.22164 h 0.956014 v 4.74907 l 2.837036,-2.49597 h 1.214396 l -3.06958,2.70784 3.198772,3.07992 h -1.240235 l -2.940389,-2.8267 v 2.8267 h -0.956014 z"
         style="fill:#4c4c47;fill-opacity:1"
         id="path3095" />
    </g>
  </g>
  <g
     inkscape:groupmode="layer"
     id="layer2"
     inkscape:label="Layer 2"
     transform="translate(-13.572121,-94.133787)">
    <g
       id="g1759">
      <path
         sodipodi:nodetypes="cccccccccccccccccccccscsscccsssccscsccccscscccss"
         inkscape:connector-curvature="0"
         d="m 60.434087,101.0482 c 0.2364,-0.0792 0.46416,-0.18845 0.69873,-0.27493 1.108993,-0.44701 2.220197,-0.890167 3.324094,-1.348827 0.09622,-0.0644 0.06777,-0.23034 -0.04836,-0.2531 -1.252406,-0.585737 -2.505374,-1.172547 -3.759664,-1.753417 -0.12329,-0.0331 -0.18832,0.14286 -0.11478,0.22783 0.19564,0.41757 0.33641,0.86997 0.32471,1.335697 0.0231,0.53645 -0.0961,1.075597 -0.34894,1.549797 -0.0498,0.13206 -0.14477,0.24635 -0.1852,0.37989 -0.007,0.0649 0.0394,0.13853 0.1094,0.13706 z m -3.514377,13.33867 c -0.2364,0.0792 -0.464167,0.18845 -0.698735,0.27493 -1.108992,0.44701 -2.220196,0.89017 -3.324093,1.34882 -0.09622,0.0644 -0.06777,0.23034 0.04836,0.2531 1.252406,0.58574 2.505378,1.17255 3.759664,1.75342 0.123288,0.0331 0.188321,-0.14286 0.114784,-0.22783 -0.415808,-0.95116 -0.422403,-2.02615 0.02423,-2.88549 0.04979,-0.13206 0.144768,-0.24635 0.185198,-0.37989 0.0074,-0.0649 -0.0394,-0.13853 -0.109401,-0.13706 z m 2.117512,-16.265313 c -2.025716,0 -3.617349,0.471292 -4.774901,1.413867 -1.149284,0.942576 -1.723927,2.232426 -1.723927,3.869526 0,1.41387 0.417547,2.51768 1.252638,3.31143 0.835091,0.79375 2.186945,1.37666 4.055565,1.74873 l 1.52549,0.29765 c 1.273307,0.25632 2.186945,0.6408 2.740916,1.15342 0.56224,0.51264 0.843359,1.2237 0.843359,2.13321 0,1.04179 -0.388606,1.84381 -1.16582,2.40605 -0.777213,0.56224 -1.881021,0.84336 -3.311424,0.84336 -0.757579,0 -1.526344,-0.0983 -2.305286,-0.28525 -0.238067,0.71799 -0.281145,1.42615 -0.06821,2.09806 0.832448,0.14458 1.625394,0.22118 2.373501,0.22118 2.323372,0 4.084505,-0.46302 5.283398,-1.38907 1.207162,-0.92604 1.810742,-2.28616 1.810742,-4.08037 0,-1.50481 -0.446484,-2.7037 -1.339453,-3.59668 -0.8847,-0.90123 -2.261362,-1.52962 -4.129982,-1.88516 l -1.513085,-0.31005 c -1.372526,-0.25631 -2.306836,-0.59118 -2.80293,-1.00459 -0.487826,-0.42168 -0.731737,-1.0418 -0.731737,-1.86035 0,-0.97566 0.367935,-1.72806 1.103807,-2.25723 0.744141,-0.52917 1.798341,-0.79375 3.162599,-0.79375 0.536239,0 1.086813,0.0562 1.650029,0.1602 0.171638,-0.410107 0.252346,-0.856219 0.233577,-1.301214 0.0063,-0.254236 -0.03482,-0.504262 -0.103354,-0.747242 -0.698484,-0.09589 -1.387211,-0.145727 -2.065507,-0.145727 z"
         style="fill:#00855f;fill-opacity:1;stroke:none;stroke-width:0.01875;stroke-miterlimit:4;stroke-dasharray:none;stroke-opacity:1"
         id="path6132" />
      <text
         transform="scale(0.96056774,1.041051)"
         id="text6136"
         y="112.63211"
         x="66.925186"
         style="font-style:normal;font-weight:normal;font-size:25.39999962px;line-height:1.25;font-family:sans-serif;letter-spacing:0px;word-spacing:0px;fill:#4c4c47;fill-opacity:1;stroke:none;stroke-width:0.58078432"
         xml:space="preserve"><tspan
           style="font-size:25.39999962px;fill:#4c4c47;fill-opacity:1;stroke-width:0.58078432"
           y="112.63211"
           x="66.925186"
           id="tspan6134"
           sodipodi:role="line">WAP</tspan></text>
    </g>
    <g
       id="g1843">
      <path
         id="path1837"
         style="fill:#f00000;fill-opacity:0;stroke:none;stroke-width:0.01875;stroke-miterlimit:4;stroke-dasharray:none;stroke-opacity:1"
         d="m 60.434087,101.0482 c 0.2364,-0.0792 0.46416,-0.18845 0.69873,-0.27493 1.108993,-0.44701 2.220197,-0.890167 3.324094,-1.348827 0.09622,-0.0644 0.06777,-0.23034 -0.04836,-0.2531 -1.252406,-0.585737 -2.505374,-1.172547 -3.759664,-1.753417 -0.12329,-0.0331 -0.18832,0.14286 -0.11478,0.22783 0.19564,0.41757 0.33641,0.86997 0.32471,1.335697 0.0231,0.53645 -0.0961,1.075597 -0.34894,1.549797 -0.0498,0.13206 -0.14477,0.24635 -0.1852,0.37989 -0.007,0.0649 0.0394,0.13853 0.1094,0.13706 z m -3.514377,13.33867 c -0.2364,0.0792 -0.464167,0.18845 -0.698735,0.27493 -1.108992,0.44701 -2.220196,0.89017 -3.324093,1.34882 -0.09622,0.0644 -0.06777,0.23034 0.04836,0.2531 1.252406,0.58574 2.505378,1.17255 3.759664,1.75342 0.123288,0.0331 0.188321,-0.14286 0.114784,-0.22783 -0.415808,-0.95116 -0.422403,-2.02615 0.02423,-2.88549 0.04979,-0.13206 0.144768,-0.24635 0.185198,-0.37989 0.0074,-0.0649 -0.0394,-0.13853 -0.109401,-0.13706 z m 2.117512,-16.265313 c -2.025716,0 -3.617349,0.471292 -4.774901,1.413867 -1.149284,0.942576 -1.723927,2.232426 -1.723927,3.869526 0,1.41387 0.417547,2.51768 1.252638,3.31143 0.835091,0.79375 2.186945,1.37666 4.055565,1.74873 l 1.52549,0.29765 c 1.273307,0.25632 2.186945,0.6408 2.740916,1.15342 0.56224,0.51264 0.843359,1.2237 0.843359,2.13321 0,1.04179 -0.388606,1.84381 -1.16582,2.40605 -0.777213,0.56224 -1.881021,0.84336 -3.311424,0.84336 -0.757579,0 -1.526344,-0.0983 -2.305286,-0.28525 -0.238067,0.71799 -0.281145,1.42615 -0.06821,2.09806 0.832448,0.14458 1.625394,0.22118 2.373501,0.22118 2.323372,0 4.084505,-0.46302 5.283398,-1.38907 1.207162,-0.92604 1.810742,-2.28616 1.810742,-4.08037 0,-1.50481 -0.446484,-2.7037 -1.339453,-3.59668 -0.8847,-0.90123 -2.261362,-1.52962 -4.129982,-1.88516 l -1.513085,-0.31005 c -1.372526,-0.25631 -2.306836,-0.59118 -2.80293,-1.00459 -0.487826,-0.42168 -0.731737,-1.0418 -0.731737,-1.86035 0,-0.97566 0.367935,-1.72806 1.103807,-2.25723 0.744141,-0.52917 1.798341,-0.79375 3.162599,-0.79375 0.536239,0 1.086813,0.0562 1.650029,0.1602 0.171638,-0.410107 0.252346,-0.856219 0.233577,-1.301214 0.0063,-0.254236 -0.03482,-0.504262 -0.103354,-0.747242 -0.698484,-0.09589 -1.387211,-0.145727 -2.065507,-0.145727 z"
         inkscape:connector-curvature="0"
         sodipodi:nodetypes="cccccccccccccccccccccscsscccsssccscsccccscscccss" />
      <text
         xml:space="preserve"
         style="font-style:normal;font-weight:normal;font-size:25.39999962px;line-height:1.25;font-family:sans-serif;letter-spacing:0px;word-spacing:0px;fill:#4c4c47;fill-opacity:1;stroke:none;stroke-width:0.58078432"
         x="66.925186"
         y="112.63211"
         id="text1841"
         transform="scale(0.96056774,1.041051)"><tspan
           sodipodi:role="line"
           id="tspan1839"
           x="66.925186"
           y="112.63211"
           style="font-size:25.39999962px;fill:#c00000;fill-opacity:0;stroke-width:0.58078432">WAP</tspan></text>
    </g>
  </g>
</svg>
